<mxfile host="Electron" modified="2024-03-29T05:09:35.223Z" agent="Mozilla/5.0 (X11; Linux x86_64) AppleWebKit/537.36 (KHTML, like Gecko) draw.io/24.1.0 Chrome/120.0.6099.109 Electron/28.1.0 Safari/537.36" etag="fYhvuH4Ptlwye8iajBEi" version="24.1.0" type="device">
  <diagram id="3228e29e-7158-1315-38df-8450db1d8a1d" name="Page-1">
    <mxGraphModel dx="2174" dy="1421" grid="1" gridSize="10" guides="1" tooltips="1" connect="1" arrows="1" fold="1" page="1" pageScale="1" pageWidth="1169" pageHeight="827" background="none" math="1" shadow="0">
      <root>
        <mxCell id="0" />
        <mxCell id="1" parent="0" />
        <mxCell id="21653" value="" style="ellipse;whiteSpace=wrap;html=1;aspect=fixed;rounded=1;shadow=0;glass=0;labelBackgroundColor=none;strokeColor=none;strokeWidth=2;fillColor=#1699D3;gradientColor=none;fontFamily=Helvetica;fontSize=25;fontColor=#2F5B7C;align=left;opacity=50;labelPosition=right;verticalLabelPosition=middle;verticalAlign=middle;" parent="1" vertex="1">
          <mxGeometry x="60.5" y="240" width="41" height="41" as="geometry" />
        </mxCell>
        <mxCell id="21655" value="" style="ellipse;whiteSpace=wrap;html=1;aspect=fixed;rounded=1;shadow=0;glass=0;labelBackgroundColor=none;strokeColor=none;strokeWidth=2;fillColor=#56517E;gradientColor=none;fontFamily=Helvetica;fontSize=25;fontColor=#2F5B7C;align=left;opacity=50;labelPosition=right;verticalLabelPosition=middle;verticalAlign=middle;" parent="1" vertex="1">
          <mxGeometry x="60" y="400" width="41" height="41" as="geometry" />
        </mxCell>
        <mxCell id="21657" value="" style="ellipse;whiteSpace=wrap;html=1;aspect=fixed;rounded=1;shadow=0;glass=0;labelBackgroundColor=none;strokeColor=none;strokeWidth=2;fillColor=#AE4132;gradientColor=none;fontFamily=Helvetica;fontSize=25;fontColor=#2F5B7C;align=left;opacity=50;labelPosition=right;verticalLabelPosition=middle;verticalAlign=middle;" parent="1" vertex="1">
          <mxGeometry x="60.5" y="320" width="41" height="41" as="geometry" />
        </mxCell>
        <mxCell id="21661" value="" style="ellipse;whiteSpace=wrap;html=1;aspect=fixed;rounded=1;shadow=0;glass=0;labelBackgroundColor=#FFFFFF;strokeColor=none;strokeWidth=2;fillColor=#1699D3;gradientColor=none;fontFamily=Helvetica;fontSize=25;fontColor=#2F5B7C;align=left;opacity=50;" parent="1" vertex="1">
          <mxGeometry x="329.9964285714286" y="161" width="400" height="400" as="geometry" />
        </mxCell>
        <mxCell id="21662" value="" style="ellipse;whiteSpace=wrap;html=1;aspect=fixed;rounded=1;shadow=0;glass=0;labelBackgroundColor=#FFFFFF;strokeColor=none;strokeWidth=2;fillColor=#56517E;gradientColor=none;fontFamily=Helvetica;fontSize=25;fontColor=#2F5B7C;align=left;opacity=50;" parent="1" vertex="1">
          <mxGeometry x="550" y="160.99785977859779" width="400" height="400" as="geometry" />
        </mxCell>
        <mxCell id="21663" value="" style="ellipse;whiteSpace=wrap;html=1;aspect=fixed;rounded=1;shadow=0;glass=0;labelBackgroundColor=#FFFFFF;strokeColor=none;strokeWidth=2;fillColor=#AE4132;gradientColor=none;fontFamily=Helvetica;fontSize=25;fontColor=#2F5B7C;align=left;opacity=50;" parent="1" vertex="1">
          <mxGeometry x="499.995" y="310.999815498155" width="100" height="100" as="geometry" />
        </mxCell>
        <mxCell id="RTXxixA2YnRlsQULsE_I-21685" value="&lt;font style=&quot;font-size: 16px;&quot;&gt;\((E(S)-E(S^{&#39;}))-E^{*}\): newly disabled clocks &lt;br&gt;(that did not fire)&lt;/font&gt;" style="text;html=1;align=center;verticalAlign=middle;whiteSpace=wrap;rounded=0;" parent="1" vertex="1">
          <mxGeometry x="240" y="90" width="210" height="60" as="geometry" />
        </mxCell>
        <mxCell id="RTXxixA2YnRlsQULsE_I-21690" value="" style="endArrow=classic;html=1;rounded=0;exitX=0.471;exitY=0.975;exitDx=0;exitDy=0;exitPerimeter=0;strokeWidth=1;" parent="1" source="RTXxixA2YnRlsQULsE_I-21685" edge="1">
          <mxGeometry width="50" height="50" relative="1" as="geometry">
            <mxPoint x="510" y="350" as="sourcePoint" />
            <mxPoint x="463" y="291" as="targetPoint" />
          </mxGeometry>
        </mxCell>
        <mxCell id="RTXxixA2YnRlsQULsE_I-21691" value="&lt;font style=&quot;font-size: 16px;&quot;&gt;\(E(S^{&#39;})-(E(S)-E^{*}) \): newly enabled clocks&lt;/font&gt;" style="text;html=1;align=center;verticalAlign=middle;whiteSpace=wrap;rounded=0;" parent="1" vertex="1">
          <mxGeometry x="680" y="90" width="210" height="40" as="geometry" />
        </mxCell>
        <mxCell id="RTXxixA2YnRlsQULsE_I-21692" value="" style="endArrow=classic;html=1;rounded=0;exitX=0.5;exitY=1;exitDx=0;exitDy=0;strokeWidth=1;" parent="1" source="RTXxixA2YnRlsQULsE_I-21691" edge="1">
          <mxGeometry width="50" height="50" relative="1" as="geometry">
            <mxPoint x="309" y="149" as="sourcePoint" />
            <mxPoint x="577" y="357" as="targetPoint" />
          </mxGeometry>
        </mxCell>
        <mxCell id="RTXxixA2YnRlsQULsE_I-21693" value="" style="endArrow=classic;html=1;rounded=0;exitX=0.5;exitY=1;exitDx=0;exitDy=0;strokeWidth=1;" parent="1" source="RTXxixA2YnRlsQULsE_I-21691" edge="1">
          <mxGeometry width="50" height="50" relative="1" as="geometry">
            <mxPoint x="775" y="130" as="sourcePoint" />
            <mxPoint x="823" y="327" as="targetPoint" />
          </mxGeometry>
        </mxCell>
        <mxCell id="RTXxixA2YnRlsQULsE_I-21694" value="&lt;font style=&quot;font-size: 16px;&quot;&gt;\(E(S^{&#39;})\cap(E(S)-E^{*})\): still enabled (old) clocks&lt;/font&gt;" style="text;html=1;align=center;verticalAlign=middle;whiteSpace=wrap;rounded=0;" parent="1" vertex="1">
          <mxGeometry x="540" y="590" width="200" height="40" as="geometry" />
        </mxCell>
        <mxCell id="RTXxixA2YnRlsQULsE_I-21695" value="" style="endArrow=classic;html=1;rounded=0;exitX=0.477;exitY=-0.01;exitDx=0;exitDy=0;exitPerimeter=0;strokeWidth=1;" parent="1" source="RTXxixA2YnRlsQULsE_I-21694" edge="1">
          <mxGeometry width="50" height="50" relative="1" as="geometry">
            <mxPoint x="349" y="139" as="sourcePoint" />
            <mxPoint x="635" y="399" as="targetPoint" />
          </mxGeometry>
        </mxCell>
        <mxCell id="RTXxixA2YnRlsQULsE_I-21696" value="&lt;font style=&quot;font-size: 16px;&quot;&gt;\((E(S)-E(S^{&#39;}))\cap E^{*}\): newly disabled clocks &lt;br&gt;(that did fire)&lt;/font&gt;" style="text;html=1;align=center;verticalAlign=middle;whiteSpace=wrap;rounded=0;" parent="1" vertex="1">
          <mxGeometry x="200" y="550" width="210" height="60" as="geometry" />
        </mxCell>
        <mxCell id="RTXxixA2YnRlsQULsE_I-21697" value="" style="endArrow=classic;html=1;rounded=0;exitX=0.5;exitY=0;exitDx=0;exitDy=0;strokeWidth=1;" parent="1" source="RTXxixA2YnRlsQULsE_I-21696" edge="1">
          <mxGeometry width="50" height="50" relative="1" as="geometry">
            <mxPoint x="645" y="640" as="sourcePoint" />
            <mxPoint x="532" y="357" as="targetPoint" />
          </mxGeometry>
        </mxCell>
        <mxCell id="RTXxixA2YnRlsQULsE_I-21698" value="&lt;span style=&quot;color: rgb(47, 91, 124); font-size: 20px; text-align: left;&quot;&gt;\(E(S)\): enabled in \(S\)&lt;/span&gt;" style="text;html=1;align=center;verticalAlign=middle;whiteSpace=wrap;rounded=0;" parent="1" vertex="1">
          <mxGeometry x="101.5" y="245.5" width="180" height="30" as="geometry" />
        </mxCell>
        <mxCell id="RTXxixA2YnRlsQULsE_I-21699" value="&lt;span style=&quot;color: rgb(47, 91, 124); font-size: 20px; text-align: left;&quot;&gt;\(E(S^{&#39;})\): enabled in \(S^{&#39;}\)&lt;/span&gt;" style="text;html=1;align=center;verticalAlign=middle;whiteSpace=wrap;rounded=0;" parent="1" vertex="1">
          <mxGeometry x="101.5" y="405.5" width="198.5" height="30" as="geometry" />
        </mxCell>
        <mxCell id="RTXxixA2YnRlsQULsE_I-21700" value="&lt;span style=&quot;color: rgb(47, 91, 124); font-size: 20px; text-align: left;&quot;&gt;\(E^{*}\): firing clock(s)&lt;/span&gt;" style="text;html=1;align=center;verticalAlign=middle;whiteSpace=wrap;rounded=0;" parent="1" vertex="1">
          <mxGeometry x="101.5" y="325.5" width="162.5" height="30" as="geometry" />
        </mxCell>
      </root>
    </mxGraphModel>
  </diagram>
</mxfile>
